<svg xmlns="http://www.w3.org/2000/svg" viewBox="0 0 45.03 42.4"><defs><style>.cls-1{fill:#162e10;stroke:#162e10;}.cls-1,.cls-2,.cls-3{stroke-miterlimit:10;}.cls-2{fill:#1c5813;stroke:#1c5813;}.cls-3{fill:#1a8711;stroke:#1a8711;}</style></defs><g id="Layer_2" data-name="Layer 2"><g id="Layer_1-2" data-name="Layer 1"><path class="cls-1" d="M38.11,23.72c-8.56,5-22.5,5-31.12,0A15.44,15.44,0,0,1,2.52,20l0,10.27c0,3,2,6,5.91,8.24C16.24,43,28.89,43,36.68,38.5c3.87-2.24,5.8-5.18,5.81-8.13l0-10.36A15.22,15.22,0,0,1,38.11,23.72Z"/><path class="cls-2" d="M44.53,2.55a6,6,0,0,1-.05.61,3.68,3.68,0,0,1,0,.58c0,.21-.1.43-.15.64s-.08.38-.14.56-.18.44-.27.65-.14.36-.23.54-.26.44-.39.65-.19.35-.31.52-.34.43-.51.64-.25.33-.39.48-.43.43-.64.64-.29.3-.46.44h0c-.26.23-.56.45-.85.67s-.28.24-.45.35c-.35.25-.74.49-1.13.73l-.36.24c-8.57,5-22.5,5-31.12,0-.54-.32-1-.64-1.52-1l-.42-.33c-.31-.23-.62-.47-.9-.71l-.05,0-.39-.39c-.23-.22-.47-.43-.68-.66s-.25-.32-.38-.48-.37-.43-.53-.65S2,6.92,1.85,6.75s-.28-.43-.4-.65-.15-.36-.23-.54S1,5.12.94,4.9.85,4.52.8,4.34.68,3.9.64,3.68s0-.38-.05-.57,0-.44,0-.65v0l0,12.22a8.57,8.57,0,0,0,2,5.34A15.44,15.44,0,0,0,7,23.72c8.62,5,22.56,5,31.12,0A15.22,15.22,0,0,0,42.52,20a8.48,8.48,0,0,0,2-5.23Z"/><path class="cls-3" d="M38.13.5a1.46,1.46,0,0,1,.1.23c.05.14.07.28.11.42a3.57,3.57,0,0,1,.11.47,3,3,0,0,1,0,.42,3.73,3.73,0,0,1,0,.47C38.53,4.87,37,7.24,33.89,9c-6.23,3.62-16.36,3.62-22.63,0C7.9,7.1,6.35,4.52,6.57,2a2.71,2.71,0,0,1,0-.41,4.15,4.15,0,0,1,.11-.48c0-.13.06-.27.1-.4S6.88.57,6.9.5H.82A8.09,8.09,0,0,0,.54,2.24v.22c0,.21,0,.43,0,.65s0,.38.05.57.11.44.16.66.08.37.14.56.19.44.28.66.14.36.23.54.26.43.4.65.19.35.31.52.35.44.53.65.24.33.38.48.45.44.68.66l.39.39.05,0c.28.24.59.48.9.71l.42.33c.47.33,1,.65,1.52,1,8.62,5,22.55,5,31.12,0l.36-.24c.39-.24.78-.48,1.13-.73.17-.11.3-.24.45-.35s.58-.44.84-.67h0c.17-.14.3-.29.46-.44s.45-.42.64-.64.26-.32.39-.48.36-.43.51-.64.21-.35.31-.52.28-.43.39-.65.15-.36.23-.54.19-.43.27-.65.09-.37.14-.56.12-.43.15-.64a3.68,3.68,0,0,0,0-.58A7.53,7.53,0,0,0,44.23.5Z"/></g></g></svg>