<svg xmlns="http://www.w3.org/2000/svg" viewBox="0 0 45.03 53.16"><defs><style>.cls-1{fill:none;}.cls-2{fill:#3d150d;stroke:#3d150d;}.cls-2,.cls-4,.cls-5{stroke-miterlimit:10;}.cls-3{fill:#1c5813;}.cls-4{fill:#761d14;stroke:#761d14;}.cls-5{fill:#b31f18;stroke:#b31f18;}</style></defs><g id="Layer_2" data-name="Layer 2"><g id="Layer_1-2" data-name="Layer 1"><path class="cls-1" d="M2.16,18a5.33,5.33,0,0,1-.31-.51A5.33,5.33,0,0,0,2.16,18Z"/><polygon class="cls-1" points="40.94 20.27 40.94 20.26 40.93 20.27 40.94 20.27"/><path class="cls-1" d="M.94,15.65c-.06-.18-.09-.37-.14-.56C.85,15.28.88,15.47.94,15.65Z"/><path class="cls-1" d="M1.45,16.85c-.09-.17-.15-.36-.23-.53C1.3,16.49,1.36,16.68,1.45,16.85Z"/><path class="cls-1" d="M3.75,19.82c.13.13.25.26.39.38h0C4,20.08,3.88,20,3.75,19.82Z"/><path class="cls-1" d="M35.23,7.65c.22.16.44.33.64.5C35.67,8,35.45,7.81,35.23,7.65Z"/><path class="cls-1" d="M33.81,6.69a13,13,0,0,1,1.1.71A13,13,0,0,0,33.81,6.69Z"/><path class="cls-1" d="M9.76,7.65c.11-.08.21-.18.33-.26C10,7.47,9.87,7.57,9.76,7.65Z"/><path class="cls-1" d="M8.82,8.46c.11-.11.21-.22.33-.32C9,8.24,8.93,8.35,8.82,8.46Z"/><path class="cls-1" d="M44.43,14.49c0,.22-.1.44-.15.65C44.33,14.93,44.4,14.71,44.43,14.49Z"/><path class="cls-1" d="M44.14,15.7c-.08.22-.18.43-.27.65C44,16.13,44.06,15.92,44.14,15.7Z"/><path class="cls-1" d="M3.07,19.16c-.14-.16-.25-.32-.38-.48C2.82,18.84,2.93,19,3.07,19.16Z"/><path class="cls-1" d="M43.64,16.89c-.11.22-.26.43-.39.65C43.38,17.32,43.53,17.11,43.64,16.89Z"/><path class="cls-1" d="M42,19.18c-.19.22-.43.43-.64.64C41.61,19.61,41.85,19.4,42,19.18Z"/><path class="cls-1" d="M42.94,18.05c-.15.22-.34.43-.51.65C42.6,18.48,42.79,18.27,42.94,18.05Z"/><path class="cls-1" d="M.64,14.44c0-.19,0-.38-.05-.57C.61,14.06.61,14.25.64,14.44Z"/><path class="cls-1" d="M6.72,11.86c0-.13.06-.27.1-.41C6.78,11.59,6.76,11.73,6.72,11.86Z"/><path class="cls-1" d="M38.34,11.9a4.15,4.15,0,0,1,.11.48A4.15,4.15,0,0,0,38.34,11.9Z"/><path class="cls-1" d="M6.57,12.75a3,3,0,0,1,0-.42A3,3,0,0,0,6.57,12.75Z"/><path class="cls-1" d="M38.49,12.8a3.57,3.57,0,0,1,0,.47A3.57,3.57,0,0,0,38.49,12.8Z"/><path class="cls-1" d="M7,11a3.29,3.29,0,0,1,.17-.39A3.29,3.29,0,0,0,7,11Z"/><path class="cls-1" d="M7.46,10.12c.08-.12.15-.25.23-.38C7.61,9.87,7.54,10,7.46,10.12Z"/><path class="cls-1" d="M36.2,8.47c.16.16.34.31.48.47C36.54,8.78,36.36,8.63,36.2,8.47Z"/><path class="cls-1" d="M8.35,8.92c-.11.12-.19.24-.29.36C8.16,9.16,8.24,9,8.35,8.92Z"/><path class="cls-1" d="M37.59,10.16c.09.16.19.31.27.46C37.78,10.47,37.68,10.32,37.59,10.16Z"/><path class="cls-1" d="M38,11c.06.16.14.31.19.47C38.18,11.33,38.1,11.18,38,11Z"/><path class="cls-1" d="M37,9.31c.12.15.26.3.37.46C37.24,9.61,37.1,9.46,37,9.31Z"/><path class="cls-2" d="M38.11,34.48c-8.56,5-22.5,5-31.12,0a15.3,15.3,0,0,1-4.47-3.74L2.49,41c0,3,2,6,5.91,8.25,7.84,4.53,20.49,4.53,28.28,0,3.87-2.25,5.8-5.19,5.81-8.13l0-10.36A15.22,15.22,0,0,1,38.11,34.48Z"/><path class="cls-3" d="M4.14,20.2l.05.05-.05-.05Z"/><path class="cls-3" d="M40.09,20.94c.29-.22.59-.44.85-.67h0C40.67,20.5,40.38,20.72,40.09,20.94Z"/><path class="cls-3" d="M5.51,21.28c-.15-.1-.28-.22-.42-.32C5.23,21.06,5.36,21.18,5.51,21.28Z"/><path class="cls-3" d="M38.51,22c.39-.24.78-.48,1.13-.73-.35.25-.74.49-1.13.73Z"/><path d="M7.69,9.74c-.08.13-.15.26-.23.38s-.2.31-.27.47A3.29,3.29,0,0,0,7,11l-.2.47c0,.14-.06.28-.1.41a4.52,4.52,0,0,0-.11.47,3,3,0,0,0,0,.42c-.22,2.53,1.33,5.11,4.69,7.05,6.27,3.62,16.4,3.62,22.63,0,3.1-1.81,4.64-4.17,4.64-6.53a3.57,3.57,0,0,0,0-.47,3,3,0,0,0,0-.42,4.15,4.15,0,0,0-.11-.48c0-.13-.06-.27-.11-.41S38.1,11.18,38,11s-.11-.27-.18-.4-.18-.3-.27-.46-.15-.26-.24-.39-.25-.31-.37-.46-.19-.25-.3-.37-.32-.31-.48-.47-.21-.22-.33-.32-.42-.34-.64-.5-.2-.17-.32-.25a13,13,0,0,0-1.1-.71c-6.27-3.62-16.4-3.62-22.63,0a12.76,12.76,0,0,0-1.09.7c-.12.08-.22.18-.33.26a7.68,7.68,0,0,0-.61.49c-.12.1-.22.21-.33.32s-.33.31-.47.46-.19.24-.29.36S7.8,9.58,7.69,9.74Z"/><path d="M38.15,22.25l.36-.23h0Z"/><path class="cls-4" d="M44.53,13.31c0,.2,0,.41-.05.61a3.66,3.66,0,0,1,0,.57c0,.22-.1.44-.15.65s-.08.38-.14.56-.18.43-.27.65-.14.36-.23.54-.26.43-.39.65-.19.34-.31.51-.34.43-.51.65-.25.32-.39.48-.43.43-.64.64-.29.3-.46.44h0c-.26.23-.56.45-.85.67s-.28.24-.45.35c-.35.25-.74.49-1.13.73l-.36.23c-8.57,5-22.5,5-31.12,0a17.22,17.22,0,0,1-1.52-1c-.15-.1-.28-.22-.42-.32-.31-.24-.62-.47-.9-.71l-.05-.05c-.14-.12-.26-.25-.39-.38s-.47-.44-.68-.66-.25-.32-.38-.48-.37-.43-.53-.66a5.33,5.33,0,0,1-.31-.51c-.14-.22-.28-.44-.4-.66s-.15-.36-.23-.53-.2-.44-.28-.67-.09-.37-.14-.56-.12-.43-.16-.65,0-.38-.05-.57,0-.44,0-.66c0,0,0,0,0,0l0,12.23a8.56,8.56,0,0,0,2,5.33A15.3,15.3,0,0,0,7,34.48c8.62,5,22.56,5,31.12,0a15.22,15.22,0,0,0,4.41-3.71,8.48,8.48,0,0,0,2-5.23Z"/><path class="cls-5" d="M.59,13.87c0,.19,0,.38.05.57s.11.44.16.65.08.38.14.56.19.45.28.67.14.36.23.53.26.44.4.66a5.33,5.33,0,0,0,.31.51c.16.23.35.44.53.66s.24.32.38.48.45.44.68.66.25.26.39.38l.05.05c.28.24.59.47.9.71.14.1.27.22.42.32a17.22,17.22,0,0,0,1.52,1c8.62,5,22.55,5,31.12,0l.36-.23c.39-.24.78-.48,1.13-.73.17-.11.3-.24.45-.35s.58-.44.84-.67h0c.17-.14.3-.29.46-.44s.45-.42.64-.64.26-.32.39-.48.36-.43.51-.65.21-.34.31-.51.28-.43.39-.65.15-.36.23-.54.19-.43.27-.65.09-.37.14-.56.12-.43.15-.65a3.66,3.66,0,0,0,0-.57c.3-3.48-1.83-7-6.44-9.69-8.62-5-22.55-5-31.11,0C2.66,6.71.53,10,.54,13.21.54,13.43.57,13.65.59,13.87ZM8.35,8.92c.14-.15.31-.31.47-.46s.21-.22.33-.32a7.68,7.68,0,0,1,.61-.49c.11-.08.21-.18.33-.26a12.76,12.76,0,0,1,1.09-.7c6.23-3.62,16.36-3.62,22.63,0a13,13,0,0,1,1.1.71c.12.08.21.17.32.25s.44.33.64.5.22.21.33.32.34.31.48.47.2.25.3.37.26.3.37.46.16.26.24.39.19.31.27.46.12.27.18.4.14.31.19.47.07.28.11.41a4.15,4.15,0,0,1,.11.48,3,3,0,0,1,0,.42,3.57,3.57,0,0,1,0,.47c0,2.36-1.54,4.72-4.64,6.53-6.23,3.62-16.36,3.62-22.63,0-3.36-1.94-4.91-4.52-4.69-7a3,3,0,0,1,0-.42,4.52,4.52,0,0,1,.11-.47c0-.13.06-.27.1-.41L7,11a3.29,3.29,0,0,1,.17-.39c.07-.16.18-.31.27-.47s.15-.25.23-.38.25-.31.37-.46S8.24,9,8.35,8.92Z"/></g></g></svg>