<svg xmlns="http://www.w3.org/2000/svg" viewBox="0 0 45.03 42"><defs><style>.cls-1{fill:#3d150d;stroke:#3d150d;}.cls-1,.cls-2,.cls-3{stroke-miterlimit:10;}.cls-2{fill:#761d14;stroke:#761d14;}.cls-3{fill:#b31f18;stroke:#b31f18;}</style></defs><g id="Layer_2" data-name="Layer 2"><g id="Layer_1-2" data-name="Layer 1"><path class="cls-1" d="M38.11,23.32c-8.56,5-22.5,5-31.12,0a15.44,15.44,0,0,1-4.47-3.73l0,10.27c0,3,2,6,5.91,8.24,7.84,4.53,20.49,4.53,28.28,0,3.87-2.24,5.8-5.18,5.81-8.13l0-10.36A15.22,15.22,0,0,1,38.11,23.32Z"/><path class="cls-2" d="M44.53,2.15a6,6,0,0,1-.05.61,3.79,3.79,0,0,1,0,.58c0,.21-.1.43-.15.64s-.08.38-.14.56-.18.44-.27.65-.14.36-.23.54-.26.44-.39.65-.19.35-.31.52-.34.43-.51.64-.25.33-.39.48-.43.43-.64.64-.29.3-.46.44h0c-.26.23-.56.45-.85.67s-.28.24-.45.35c-.35.25-.74.49-1.13.73l-.36.24c-8.57,5-22.5,5-31.12,0-.54-.32-1-.64-1.52-1L5.09,9.8c-.31-.23-.62-.47-.9-.71l-.05,0-.39-.39c-.23-.22-.47-.43-.68-.66s-.25-.32-.38-.48-.37-.43-.53-.65S2,6.52,1.85,6.35s-.28-.43-.4-.66-.15-.35-.23-.53S1,4.72.94,4.5.85,4.12.8,3.94.68,3.5.64,3.28s0-.38-.05-.57,0-.44,0-.65c0,0,0,0,0,0l0,12.22a8.57,8.57,0,0,0,2,5.34A15.44,15.44,0,0,0,7,23.32c8.62,5,22.56,5,31.12,0a15.22,15.22,0,0,0,4.41-3.71,8.48,8.48,0,0,0,2-5.23Z"/><path class="cls-3" d="M38.27.5c0,.08,0,.16.07.25a3.57,3.57,0,0,1,.11.47,3,3,0,0,1,0,.42,3.73,3.73,0,0,1,0,.47c0,2.36-1.54,4.73-4.64,6.53-6.23,3.62-16.36,3.62-22.63,0C7.9,6.7,6.35,4.12,6.57,1.59a2.71,2.71,0,0,1,0-.41A4.15,4.15,0,0,1,6.72.7a1.17,1.17,0,0,0,0-.2h-6A7.54,7.54,0,0,0,.54,2.06c0,.21,0,.43,0,.65s0,.38.05.57.11.44.16.66.08.37.14.56.19.44.28.66.14.36.23.53.26.44.4.66.19.35.31.52.35.44.53.65.24.32.38.48.45.44.68.66l.39.39.05,0c.28.24.59.48.9.71l.42.33c.47.33,1,.65,1.52,1,8.62,5,22.55,5,31.12,0l.36-.24c.39-.24.78-.48,1.13-.73.17-.11.3-.24.45-.35s.58-.44.84-.67h0c.17-.14.3-.29.46-.44s.45-.42.64-.64.26-.32.39-.48.36-.43.51-.64.21-.35.31-.52.28-.43.39-.65.15-.36.23-.54.19-.43.27-.65.09-.37.14-.56.12-.43.15-.64a3.79,3.79,0,0,0,0-.58A7.49,7.49,0,0,0,44.33.5Z"/></g></g></svg>