<svg xmlns="http://www.w3.org/2000/svg" viewBox="0 0 44.03 52.16"><defs><style>.cls-1{fill:none;}.cls-2{fill:#162e10;}.cls-3{fill:#1c5813;}.cls-4{fill:#1a8711;}</style></defs><g id="Layer_2" data-name="Layer 2"><g id="Layer_1-2" data-name="Layer 1"><path class="cls-1" d="M1.66,17.52A5.33,5.33,0,0,1,1.35,17,5.33,5.33,0,0,0,1.66,17.52Z"/><polygon class="cls-1" points="40.44 19.77 40.44 19.76 40.43 19.77 40.44 19.77"/><path class="cls-1" d="M.44,15.15C.38,15,.35,14.78.3,14.59.35,14.78.38,15,.44,15.15Z"/><path class="cls-1" d="M1,16.35C.86,16.18.8,16,.72,15.82.8,16,.86,16.18,1,16.35Z"/><path class="cls-1" d="M3.25,19.32c.13.13.25.26.39.38h0C3.5,19.58,3.38,19.45,3.25,19.32Z"/><path class="cls-1" d="M34.73,7.15c.22.16.44.33.64.5C35.17,7.48,35,7.31,34.73,7.15Z"/><path class="cls-1" d="M33.31,6.19a13,13,0,0,1,1.1.71A13,13,0,0,0,33.31,6.19Z"/><path class="cls-1" d="M9.26,7.15c.11-.08.21-.18.33-.26C9.47,7,9.37,7.07,9.26,7.15Z"/><path class="cls-1" d="M8.32,8c.11-.11.21-.22.33-.32C8.53,7.74,8.43,7.85,8.32,8Z"/><path class="cls-1" d="M43.93,14c0,.22-.1.44-.15.65C43.83,14.43,43.9,14.21,43.93,14Z"/><path class="cls-1" d="M43.64,15.2c-.08.22-.18.43-.27.65C43.46,15.63,43.56,15.42,43.64,15.2Z"/><path class="cls-1" d="M2.57,18.66c-.14-.16-.25-.32-.38-.48C2.32,18.34,2.43,18.5,2.57,18.66Z"/><path class="cls-1" d="M43.14,16.39c-.11.22-.26.43-.39.65C42.88,16.82,43,16.61,43.14,16.39Z"/><path class="cls-1" d="M41.54,18.68c-.19.22-.43.43-.64.64C41.11,19.11,41.35,18.9,41.54,18.68Z"/><path class="cls-1" d="M42.44,17.55c-.15.22-.34.43-.51.65C42.1,18,42.29,17.77,42.44,17.55Z"/><path class="cls-1" d="M.14,13.94c0-.19,0-.38-.05-.57C.11,13.56.11,13.75.14,13.94Z"/><path class="cls-1" d="M6.22,11.36c0-.13.06-.27.1-.41C6.28,11.09,6.26,11.23,6.22,11.36Z"/><path class="cls-1" d="M37.84,11.4a4.15,4.15,0,0,1,.11.48A4.15,4.15,0,0,0,37.84,11.4Z"/><path class="cls-1" d="M6.07,12.25a3,3,0,0,1,0-.42A3,3,0,0,0,6.07,12.25Z"/><path class="cls-1" d="M38,12.3a3.57,3.57,0,0,1,0,.47A3.57,3.57,0,0,0,38,12.3Z"/><path class="cls-1" d="M6.52,10.48a3.29,3.29,0,0,1,.17-.39A3.29,3.29,0,0,0,6.52,10.48Z"/><path class="cls-1" d="M7,9.62c.08-.12.15-.25.23-.38C7.11,9.37,7,9.5,7,9.62Z"/><path class="cls-1" d="M35.7,8c.16.16.34.31.48.47C36,8.28,35.86,8.13,35.7,8Z"/><path class="cls-1" d="M7.85,8.42c-.11.12-.19.24-.29.36C7.66,8.66,7.74,8.54,7.85,8.42Z"/><path class="cls-1" d="M37.09,9.66c.09.16.19.31.27.46C37.28,10,37.18,9.82,37.09,9.66Z"/><path class="cls-1" d="M37.54,10.52c.06.16.14.31.19.47C37.68,10.83,37.6,10.68,37.54,10.52Z"/><path class="cls-1" d="M36.48,8.81c.12.15.26.3.37.46C36.74,9.11,36.6,9,36.48,8.81Z"/><path class="cls-2" d="M37.61,34c-8.56,5-22.5,5-31.12,0A15.3,15.3,0,0,1,2,30.24L2,40.51c0,3,2,6,5.91,8.25,7.84,4.53,20.49,4.53,28.28,0,3.87-2.25,5.8-5.19,5.81-8.13l0-10.36A15.22,15.22,0,0,1,37.61,34Z"/><path class="cls-3" d="M3.64,19.7l0,.05,0-.05Z"/><path class="cls-3" d="M39.59,20.44c.29-.22.59-.44.85-.67h0C40.17,20,39.88,20.22,39.59,20.44Z"/><path class="cls-3" d="M5,20.78c-.15-.1-.28-.22-.42-.32C4.73,20.56,4.86,20.68,5,20.78Z"/><path class="cls-3" d="M38,21.52c.39-.24.78-.48,1.13-.73-.35.25-.74.49-1.13.73Z"/><path d="M7.19,9.24c-.08.13-.15.26-.23.38s-.2.31-.27.47a3.29,3.29,0,0,0-.17.39l-.2.47c0,.14-.06.28-.1.41a4.52,4.52,0,0,0-.11.47,3,3,0,0,0,0,.42c-.22,2.53,1.33,5.11,4.69,7.05,6.27,3.62,16.4,3.62,22.63,0,3.1-1.81,4.64-4.17,4.64-6.53a3.57,3.57,0,0,0,0-.47,3,3,0,0,0,0-.42,4.15,4.15,0,0,0-.11-.48c0-.13-.06-.27-.11-.41s-.13-.31-.19-.47-.11-.27-.18-.4-.18-.3-.27-.46-.15-.26-.24-.39-.25-.31-.37-.46-.19-.25-.3-.37-.32-.31-.48-.47-.21-.22-.33-.32-.42-.34-.64-.5-.2-.17-.32-.25a13,13,0,0,0-1.1-.71c-6.27-3.62-16.4-3.62-22.63,0a12.76,12.76,0,0,0-1.09.7c-.12.08-.22.18-.33.26a7.68,7.68,0,0,0-.61.49c-.12.1-.22.21-.33.32s-.33.31-.47.46-.19.24-.29.36S7.3,9.08,7.19,9.24Z"/><path d="M37.65,21.75l.36-.23h0Z"/><path class="cls-3" d="M44,12.81c0,.2,0,.41-.05.61a3.66,3.66,0,0,1,0,.57c0,.22-.1.44-.15.65s-.08.38-.14.56-.18.43-.27.65-.14.36-.23.54-.26.43-.39.65-.19.34-.31.51-.34.43-.51.65-.25.32-.39.48-.43.43-.64.64-.29.3-.46.44h0c-.26.23-.56.45-.85.67s-.28.24-.45.35c-.35.25-.74.49-1.13.73l-.36.23c-8.57,5-22.5,5-31.12,0a17.22,17.22,0,0,1-1.52-1c-.15-.1-.28-.22-.42-.32-.31-.24-.62-.47-.9-.71l0-.05c-.14-.12-.26-.25-.39-.38s-.47-.44-.68-.66-.25-.32-.38-.48-.37-.43-.53-.66A5.33,5.33,0,0,1,1.35,17c-.14-.22-.28-.44-.4-.66S.8,16,.72,15.82s-.2-.44-.28-.67-.09-.37-.14-.56-.12-.43-.16-.65,0-.38-.05-.57,0-.44,0-.66c0,0,0,0,0,0L0,24.91a8.56,8.56,0,0,0,2,5.33A15.3,15.3,0,0,0,6.49,34c8.62,5,22.56,5,31.12,0A15.22,15.22,0,0,0,42,30.27,8.48,8.48,0,0,0,44,25Z"/><path class="cls-4" d="M.09,13.37c0,.19,0,.38.05.57s.11.44.16.65.08.38.14.56.19.45.28.67.14.36.23.53.26.44.4.66a5.33,5.33,0,0,0,.31.51c.16.23.35.44.53.66s.24.32.38.48.45.44.68.66.25.26.39.38l0,.05c.28.24.59.47.9.71.14.1.27.22.42.32a17.22,17.22,0,0,0,1.52,1c8.62,5,22.55,5,31.12,0l.36-.23c.39-.24.78-.48,1.13-.73.17-.11.3-.24.45-.35s.58-.44.84-.67h0c.17-.14.3-.29.46-.44s.45-.42.64-.64.26-.32.39-.48.36-.43.51-.65.21-.34.31-.51.28-.43.39-.65.15-.36.23-.54.19-.43.27-.65.09-.37.14-.56.12-.43.15-.65a3.66,3.66,0,0,0,0-.57c.3-3.48-1.83-7-6.44-9.69-8.62-5-22.55-5-31.11,0C2.16,6.21,0,9.46,0,12.71,0,12.93.07,13.15.09,13.37ZM7.85,8.42c.14-.15.31-.31.47-.46s.21-.22.33-.32a7.68,7.68,0,0,1,.61-.49c.11-.08.21-.18.33-.26a12.76,12.76,0,0,1,1.09-.7c6.23-3.62,16.36-3.62,22.63,0a13,13,0,0,1,1.1.71c.12.08.21.17.32.25s.44.33.64.5.22.21.33.32.34.31.48.47.2.25.3.37.26.3.37.46.16.26.24.39.19.31.27.46.12.27.18.4.14.31.19.47.07.28.11.41a4.15,4.15,0,0,1,.11.48,3,3,0,0,1,0,.42,3.57,3.57,0,0,1,0,.47c0,2.36-1.54,4.72-4.64,6.53-6.23,3.62-16.36,3.62-22.63,0-3.36-1.94-4.91-4.52-4.69-7a3,3,0,0,1,0-.42,4.52,4.52,0,0,1,.11-.47c0-.13.06-.27.1-.41l.2-.47a3.29,3.29,0,0,1,.17-.39c.07-.16.18-.31.27-.47s.15-.25.23-.38.25-.31.37-.46S7.74,8.54,7.85,8.42Z"/></g></g></svg>