<svg xmlns="http://www.w3.org/2000/svg" viewBox="0 0 32.24 25.76"><defs><style>.cls-1{isolation:isolate;}.cls-2{fill:#00235c;}.cls-3{fill:#005bf5;}</style></defs><g id="Layer_2" data-name="Layer 2"><g id="Layer_1-2" data-name="Layer 1"><g class="cls-1"><path class="cls-2" d="M26.43,10.87a18.23,18.23,0,0,0-5.91-2.08,25,25,0,0,0-3.33-.37,20,20,0,0,0-2.26,0,18.66,18.66,0,0,0-2.24.2,21.75,21.75,0,0,0-4.23,1,16.42,16.42,0,0,0-2.75,1.25,7.94,7.94,0,0,0-3.58,3.67,4.59,4.59,0,0,0,.12-1.24c0,2.08,1.35,4.15,4.08,5.73,0,2-.32,3.8-.71,4C-.2,19.69-.23,14.22,5.55,10.86s15.22-3.35,21,0,5.85,8.83.07,12.19-15.22,3.36-21,0c.39-.23.71-2,.71-4,5.43,3.13,14.24,3.13,19.63,0,2.68-1.56,4-3.6,4-5.65a5.63,5.63,0,0,0,.11,1.24,5.54,5.54,0,0,0-1.2-1.86A10.72,10.72,0,0,0,26.43,10.87Z"/><path class="cls-3" d="M32,13.38a15,15,0,0,1-.63,4.43A8.54,8.54,0,0,1,29.47,21a12.25,12.25,0,0,1-1.34,1.2,12.83,12.83,0,0,1-2.22,1.35,15.21,15.21,0,0,1-2,.83,18.87,18.87,0,0,1-2.12.62,25,25,0,0,1-5.66.64A24.94,24.94,0,0,1,10.49,25,19.75,19.75,0,0,1,6.4,23.55,13.07,13.07,0,0,1,2.77,21C1.59,19.71.23,17.69.25,13.29c0,2.37,1.55,4.74,4.67,6.55,6.22,3.59,16.29,3.58,22.46,0C30.44,18.06,32,15.72,32,13.38Z"/><path class="cls-2" d="M27.48,6.73c-6.3-3.64-16.53-3.64-22.8,0C1.56,8.54,0,10.91,0,13.29a15.63,15.63,0,0,0,.49,4A8.67,8.67,0,0,0,2,20.44a10.57,10.57,0,0,0,2.58,2.3,17.31,17.31,0,0,0,3.61,1.74,23.15,23.15,0,0,0,4.43,1.05,23,23,0,0,0,2.32.2,25.5,25.5,0,0,0,3.52-.07,24.46,24.46,0,0,0,4.5-.83,16.62,16.62,0,0,0,4-1.68,10.69,10.69,0,0,0,3.93-3.76,11.92,11.92,0,0,0,1.32-6C32.24,11,30.66,8.56,27.48,6.73Zm-.64,16.42c-5.88,3.42-15.47,3.42-21.39,0C.9,20.53-.17,16.64,2.24,13.43c0,0,0-.09,0-.14v.13a10.52,10.52,0,0,1,3.13-2.66c5.88-3.41,15.47-3.41,21.39,0A10.54,10.54,0,0,1,30,13.49v0c2.39,3.2,1.34,7.05-3.14,9.65"/><path class="cls-3" d="M29.57,20.86a7.78,7.78,0,0,0,1.11-1.51l.05-.1A8.65,8.65,0,0,1,29.57,20.86ZM28.43,22c.2-.16.4-.33.59-.51l.27-.28C29.1,21.35,28.77,21.67,28.43,22Zm-6.61,3-.1,0c.38-.08.77-.18,1.16-.3h0Zm-4.48.61-.86,0C16.77,25.61,17,25.61,17.34,25.59Zm1-.06.16,0a19.11,19.11,0,0,0,2.08-.27C20,25.34,19.18,25.45,18.3,25.53Zm-4.28,0c.35,0,.61,0,.93.06Q14.45,25.57,14,25.53ZM10.56,25c.81.18,1.59.32,2.15.39h.08C11.91,25.28,11.18,25.13,10.56,25Zm-2.3-.67.1,0a9.43,9.43,0,0,0,1,.33Zm-4-2.08h0Zm0,0,.54.38a14.66,14.66,0,0,0,1.59.89A15.22,15.22,0,0,1,4.26,22.27ZM2.77,21c-.15-.17-.31-.34-.47-.54a8,8,0,0,0,.8.87Zm29-4.76,0-.07Zm-7.39,8a13.87,13.87,0,0,0,2.43-1.14c-.22.13-.49.27-.87.46A13.07,13.07,0,0,1,24.35,24.21Zm3.78-2-.51.36c.17-.11.36-.25.55-.39ZM5.55,10.86c5.78-3.35,15.22-3.35,21,0,2.76,1.6,4.22,3.67,4.37,5.76a5.89,5.89,0,0,0,1-3.24C32,11,30.43,8.64,27.3,6.83,21.09,3.25,11,3.25,4.85,6.83,1.79,8.61.25,11,.25,13.29a5.92,5.92,0,0,0,1,3.25C1.41,14.47,2.84,12.44,5.55,10.86ZM32,13.38a16.93,16.93,0,0,1-.22,2.74A16.23,16.23,0,0,0,32,13.38Z"/><path class="cls-2" d="M30,13.37a5.53,5.53,0,0,0,.11,1.24,6.22,6.22,0,0,0-1.74-2.38A13,13,0,0,0,24.66,10a19.36,19.36,0,0,0-4.13-1.2,25.18,25.18,0,0,0-8.94,0A20.2,20.2,0,0,0,7.5,10c-3.59,1.5-4.83,3.4-5.2,4.15a3.93,3.93,0,0,0-.17.4,6,6,0,0,0,.12-1.24c0-2,1.34-4.08,4-5.64,5.39-3.13,14.2-3.13,19.62,0C28.63,9.23,30,11.3,30,13.37Z"/><path class="cls-2" d="M30,12.47v.9c0-2.07-1.35-4.14-4.09-5.72-5.42-3.13-14.23-3.13-19.62,0-2.68,1.56-4,3.6-4,5.64v-.9c0-2.05,1.34-4.09,4-5.65,5.39-3.13,14.2-3.13,19.63,0C28.63,8.32,30,10.4,30,12.47Z"/><path class="cls-2" d="M32.24,13.38a15.3,15.3,0,0,1-.64,4.46,8.58,8.58,0,0,1-1.91,3.21,10.79,10.79,0,0,1-1.36,1.22,13.21,13.21,0,0,1-2.25,1.38,19.11,19.11,0,0,1-2,.84,19.51,19.51,0,0,1-2.16.62,24.42,24.42,0,0,1-5.75.65,25.1,25.1,0,0,1-5.76-.65,19.82,19.82,0,0,1-4.16-1.45A13.2,13.2,0,0,1,2.55,21C1.36,19.76,0,17.72,0,13.29c0,2.4,1.58,4.81,4.75,6.65,6.31,3.64,16.53,3.64,22.81,0C30.67,18.13,32.23,15.76,32.24,13.38Z"/><path class="cls-3" d="M32,12.47v.91c0,2.34-1.54,4.68-4.6,6.46-6.17,3.58-16.24,3.59-22.46,0C1.8,18,.24,15.66.25,13.29v-.91c0,2.37,1.55,4.75,4.68,6.55,6.21,3.59,16.28,3.59,22.45,0C30.44,17.15,32,14.81,32,12.47Z"/><path class="cls-2" d="M32.24,12.47v.91c0,2.38-1.57,4.75-4.68,6.56-6.28,3.64-16.5,3.64-22.81,0C1.58,18.1,0,15.69,0,13.29v-.91C0,14.79,1.58,17.2,4.76,19c6.31,3.64,16.53,3.65,22.8,0C30.67,17.22,32.23,14.85,32.24,12.47Z"/><path class="cls-2" d="M5.8,14.9a17.33,17.33,0,0,0,2.77,1.25,22.26,22.26,0,0,0,3.14.82,24.92,24.92,0,0,0,3.34.38c1.5,0,1.5,0,2.26,0,1.2-.06,2-.17,2.23-.2a19.39,19.39,0,0,0,7-2.24A10.8,10.8,0,0,0,29,13a5.29,5.29,0,0,0,1.13-1.75A5.76,5.76,0,0,0,30,12.47c0-2.07-1.36-4.15-4.09-5.73-5.43-3.13-14.24-3.13-19.63,0-2.68,1.56-4,3.6-4,5.65a5.49,5.49,0,0,0-.11-1.23A8,8,0,0,0,5.8,14.9a.15.15,0,0,0-.16,0C-.17,11.54-.21,6.07,5.57,2.71s15.23-3.36,21,0,5.85,8.83.07,12.19-15.22,3.36-21,0A.15.15,0,0,1,5.8,14.9Z"/><path class="cls-3" d="M26.77,2.71c.24.15.57.33.8.5A13.22,13.22,0,0,1,29,4.3a8.64,8.64,0,0,1,1.8,2.27A11.63,11.63,0,0,1,32,12.47c0,2.34-1.55,4.68-4.61,6.46-6.17,3.59-16.24,3.59-22.45,0C1.8,17.13.24,14.75.25,12.38c0-3.84,1-5.63,1.91-6.88A10,10,0,0,1,4.59,3.23,16.31,16.31,0,0,1,8.29,1.4a21.55,21.55,0,0,1,4.35-1A24.37,24.37,0,0,1,18.38.25a22.9,22.9,0,0,1,4.44.81,17.93,17.93,0,0,1,3.95,1.65.15.15,0,0,0-.16,0c-5.81-3.36-15.26-3.36-21,0s-5.74,8.83.07,12.19,15.26,3.36,21,0,5.75-8.83-.07-12.19A.15.15,0,0,1,26.77,2.71Z"/><ellipse class="cls-3" cx="16.13" cy="8.81" rx="8.62" ry="14.88" transform="translate(7.28 24.91) rotate(-89.84)"/><path class="cls-2" d="M26.79,2.61c5.92,3.42,6,9,.07,12.39S11.39,18.42,5.47,15-.48,6,5.4,2.61,20.88-.8,26.79,2.61ZM5.64,14.9c5.82,3.36,15.26,3.36,21,0s5.75-8.83-.07-12.19-15.26-3.36-21,0-5.74,8.83.07,12.19"/><path class="cls-2" d="M26.94,2.61c.25.15.59.33.82.5a15,15,0,0,1,1.41,1.11A9.24,9.24,0,0,1,31,6.53a11.86,11.86,0,0,1,1.24,5.94c0,2.38-1.57,4.75-4.68,6.56-6.27,3.65-16.49,3.64-22.8,0C1.58,17.2,0,14.79,0,12.38.06,8.5,1,6.7,1.93,5.44a10.39,10.39,0,0,1,2.48-2.3A16.42,16.42,0,0,1,8.17,1.28a22.72,22.72,0,0,1,4.41-1A24.79,24.79,0,0,1,18.42.11a23,23,0,0,1,4.52.83,16.42,16.42,0,0,1,4,1.67.14.14,0,0,0-.15,0C20.88-.8,11.28-.8,5.4,2.61s-5.84,9,.07,12.39S21,18.42,26.86,15s5.85-9-.07-12.39A.14.14,0,0,1,26.94,2.61Z"/></g></g></g></svg>