<svg xmlns="http://www.w3.org/2000/svg" viewBox="0 0 32.24 25.76"><defs><style>.cls-1{isolation:isolate;}.cls-2{fill:#bfab1b;}.cls-3{fill:#ffe424;}</style></defs><g id="Layer_2" data-name="Layer 2"><g id="Layer_1-2" data-name="Layer 1"><g class="cls-1"><path class="cls-2" d="M26.44,10.87a18.6,18.6,0,0,0-5.92-2.08,24.78,24.78,0,0,0-3.33-.37,20,20,0,0,0-2.26,0,19,19,0,0,0-2.24.2,21.63,21.63,0,0,0-4.22,1,16.42,16.42,0,0,0-2.75,1.25,7.94,7.94,0,0,0-3.58,3.67,5.53,5.53,0,0,0,.11-1.24c0,2.08,1.36,4.15,4.09,5.73,0,2-.32,3.8-.71,4C-.2,19.69-.23,14.23,5.56,10.86s15.21-3.35,21,0,5.85,8.82.08,12.18-15.23,3.36-21,0c.39-.23.71-2,.71-4,5.43,3.13,14.23,3.13,19.63,0,2.67-1.56,4-3.6,4-5.64a6.2,6.2,0,0,0,.1,1.24,5.3,5.3,0,0,0-1.2-1.86A10.65,10.65,0,0,0,26.44,10.87Z"/><path class="cls-3" d="M32,13.38a15.15,15.15,0,0,1-.64,4.44A8.44,8.44,0,0,1,29.47,21a12.15,12.15,0,0,1-1.33,1.19,12.86,12.86,0,0,1-2.22,1.36,19.2,19.2,0,0,1-2,.82,17.59,17.59,0,0,1-2.12.62,24.43,24.43,0,0,1-5.66.64A25.09,25.09,0,0,1,10.49,25a19.67,19.67,0,0,1-4.08-1.43A12.88,12.88,0,0,1,2.77,21C1.59,19.7.24,17.69.25,13.29c0,2.37,1.56,4.74,4.68,6.55,6.21,3.58,16.28,3.59,22.46,0C30.45,18.06,32,15.72,32,13.38Z"/><path class="cls-2" d="M27.48,6.73C21.17,3.09,11,3.09,4.68,6.73,1.57,8.54,0,10.91,0,13.29a15.63,15.63,0,0,0,.49,4A8.49,8.49,0,0,0,2,20.44a10.35,10.35,0,0,0,2.58,2.3,17.47,17.47,0,0,0,3.61,1.75,23.62,23.62,0,0,0,4.43,1,23,23,0,0,0,2.32.2,27.32,27.32,0,0,0,3.52-.07,23.34,23.34,0,0,0,4.5-.84,17.47,17.47,0,0,0,4-1.67,13.17,13.17,0,0,0,2.23-1.64,8.45,8.45,0,0,0,1.68-2.12,11.8,11.8,0,0,0,1.32-6C32.24,11,30.66,8.56,27.48,6.73Zm-.64,16.42c-5.88,3.42-15.48,3.42-21.39,0C.9,20.53-.17,16.64,2.25,13.42v0a10.37,10.37,0,0,1,3.13-2.66c5.87-3.41,15.47-3.41,21.39,0A10.56,10.56,0,0,1,30,13.5a.49.49,0,0,0,0-.12v.13c2.37,3.19,1.33,7-3.15,9.64"/><path class="cls-3" d="M29.57,20.88a7.65,7.65,0,0,0,1.11-1.53l.05-.09A9.14,9.14,0,0,1,29.57,20.88Zm-1.12,1.06a6.58,6.58,0,0,0,.57-.5l.28-.28C29.11,21.35,28.78,21.67,28.45,21.94Zm-6.63,3-.07,0,1.15-.3h0Zm-4.53.61-.82,0C16.75,25.61,17,25.61,17.29,25.59Zm1.13-.07h0s.56-.05,1.33-.16C19.38,25.42,18.92,25.47,18.42,25.52Zm-4.37,0c.34,0,.6,0,.9.06Q14.47,25.57,14.05,25.53ZM10.49,25h0c.83.19,1.65.34,2.24.41h.07C11.87,25.27,11.12,25.11,10.49,25Zm-2.22-.65.09,0c.35.13.73.25,1.13.36C9.1,24.61,8.68,24.47,8.27,24.33Zm-3.64-1.8.18.11a14.1,14.1,0,0,0,1.59.91A19.44,19.44,0,0,1,4.63,22.53ZM2.77,21c-.15-.16-.31-.34-.46-.53a6.38,6.38,0,0,0,.76.83Zm29-4.74v0Zm-7.42,8a14.62,14.62,0,0,0,2.45-1.14l-.86.46A16.92,16.92,0,0,1,24.33,24.22Zm3.81-2-.51.36.54-.38ZM5.56,10.86c5.78-3.35,15.21-3.35,21,0,2.76,1.59,4.22,3.66,4.37,5.76a6,6,0,0,0,1-3.25c0-2.37-1.56-4.74-4.68-6.55C21.09,3.25,11,3.25,4.86,6.83,1.79,8.61.26,11,.25,13.29a5.87,5.87,0,0,0,1,3.24C1.42,14.47,2.85,12.44,5.56,10.86ZM32,13.38a17.36,17.36,0,0,1-.23,2.75A16.26,16.26,0,0,0,32,13.38Z"/><path class="cls-2" d="M30,13.38a5.42,5.42,0,0,0,.1,1.24,6.14,6.14,0,0,0-1.74-2.38A13.26,13.26,0,0,0,24.66,10a19.36,19.36,0,0,0-4.13-1.2,25.41,25.41,0,0,0-4.47-.4,25,25,0,0,0-4.46.4A20.2,20.2,0,0,0,7.51,10c-3.59,1.5-4.84,3.41-5.21,4.16a3,3,0,0,0-.16.39,5.53,5.53,0,0,0,.11-1.24c0-2,1.35-4.08,4-5.64,5.39-3.13,14.19-3.13,19.62,0C28.63,9.23,30,11.31,30,13.38Z"/><path class="cls-2" d="M30,12.47v.91c0-2.07-1.36-4.15-4.09-5.73-5.43-3.13-14.23-3.13-19.62,0-2.68,1.56-4,3.6-4,5.64v-.9c0-2.05,1.35-4.09,4-5.65,5.39-3.13,14.19-3.13,19.62,0C28.63,8.32,30,10.4,30,12.47Z"/><path class="cls-2" d="M32.23,13.38a15.2,15.2,0,0,1-.63,4.46,8.58,8.58,0,0,1-1.91,3.21,11.65,11.65,0,0,1-1.36,1.22,13.85,13.85,0,0,1-2.25,1.37,15.06,15.06,0,0,1-2,.84,16.31,16.31,0,0,1-2.15.63,24.64,24.64,0,0,1-5.76.65,25,25,0,0,1-5.76-.65,19.82,19.82,0,0,1-4.16-1.45A13.43,13.43,0,0,1,2.55,21C1.36,19.76,0,17.72,0,13.29c0,2.41,1.58,4.82,4.75,6.65,6.31,3.64,16.54,3.64,22.81,0C30.67,18.13,32.23,15.76,32.23,13.38Z"/><path class="cls-3" d="M32,12.48v.9c0,2.34-1.54,4.68-4.6,6.46-6.18,3.59-16.25,3.58-22.46,0C1.81,18,.24,15.66.25,13.29v-.91c0,2.37,1.56,4.75,4.69,6.55,6.21,3.59,16.27,3.59,22.45,0C30.45,17.15,32,14.82,32,12.48Z"/><path class="cls-2" d="M32.24,12.47v.91c0,2.38-1.56,4.75-4.67,6.56-6.27,3.64-16.5,3.64-22.81,0C1.58,18.11,0,15.7,0,13.29v-.91C0,14.79,1.58,17.2,4.76,19c6.3,3.64,16.53,3.64,22.8,0C30.67,17.22,32.23,14.85,32.24,12.47Z"/><path class="cls-2" d="M5.81,14.9a16.55,16.55,0,0,0,2.77,1.25,21.9,21.9,0,0,0,3.14.82,25.78,25.78,0,0,0,3.33.38c1.5,0,1.5,0,2.26,0,1.28-.06,2.23-.2,2.24-.2a19.51,19.51,0,0,0,7-2.24A10.52,10.52,0,0,0,29,13a5.14,5.14,0,0,0,1.12-1.75A5.85,5.85,0,0,0,30,12.47c0-2.07-1.36-4.15-4.09-5.72-5.43-3.14-14.23-3.14-19.62,0-2.68,1.56-4,3.6-4,5.65a6,6,0,0,0-.1-1.24A7.87,7.87,0,0,0,5.81,14.9a.15.15,0,0,0-.16,0C-.17,11.54-.2,6.07,5.58,2.71s15.21-3.36,21,0,5.86,8.82.08,12.18-15.22,3.36-21,0A.15.15,0,0,1,5.81,14.9Z"/><path class="cls-3" d="M26.77,2.71c.24.15.57.34.8.5A12.25,12.25,0,0,1,29,4.3a8.71,8.71,0,0,1,1.81,2.28A11.76,11.76,0,0,1,32,12.48c0,2.34-1.54,4.67-4.6,6.45-6.18,3.59-16.24,3.59-22.45,0C1.81,17.13.25,14.75.25,12.38c.06-3.84,1-5.63,1.91-6.88A10.49,10.49,0,0,1,4.6,3.23,16.32,16.32,0,0,1,8.3,1.4a21.63,21.63,0,0,1,4.34-1A25.06,25.06,0,0,1,18.38.25a23.35,23.35,0,0,1,4.44.82,17.31,17.31,0,0,1,3.95,1.64.14.14,0,0,0-.16,0c-5.82-3.37-15.25-3.37-21,0s-5.75,8.83.07,12.19,15.25,3.36,21,0,5.74-8.83-.08-12.18A.14.14,0,0,1,26.77,2.71Z"/><path class="cls-3" d="M26.61,2.72c5.82,3.35,5.86,8.82.08,12.18s-15.22,3.36-21,0S-.2,6.07,5.58,2.71,20.79-.65,26.61,2.72Z"/><path class="cls-2" d="M26.79,2.61c5.91,3.42,6,9,.07,12.39S11.38,18.42,5.47,15-.48,6,5.4,2.61,20.87-.8,26.79,2.61ZM5.65,14.9c5.82,3.36,15.25,3.36,21,0s5.74-8.83-.08-12.18-15.25-3.37-21,0-5.75,8.83.07,12.19"/><path class="cls-2" d="M27,2.61c.24.15.58.34.81.51a14.84,14.84,0,0,1,1.41,1.1A9,9,0,0,1,31,6.53a11.69,11.69,0,0,1,1.25,5.94c0,2.38-1.57,4.75-4.68,6.56-6.27,3.64-16.5,3.64-22.8,0C1.58,17.2,0,14.79,0,12.38.06,8.5,1,6.7,1.93,5.44A10.63,10.63,0,0,1,4.41,3.13,16.34,16.34,0,0,1,8.17,1.28a21.33,21.33,0,0,1,4.41-1A25.32,25.32,0,0,1,18.42.11a23,23,0,0,1,4.52.83,17.6,17.6,0,0,1,4,1.67.15.15,0,0,0-.16,0C20.87-.8,11.28-.8,5.4,2.61s-5.85,9,.07,12.39S21,18.42,26.86,15s5.84-9-.07-12.39A.15.15,0,0,1,27,2.61Z"/></g></g></g></svg>