<svg xmlns="http://www.w3.org/2000/svg" viewBox="0 0 32.24 25.76"><defs><style>.cls-1{isolation:isolate;}.cls-2{fill:#fc7438;}.cls-3{fill:#bd572a;}</style></defs><g id="Layer_2" data-name="Layer 2"><g id="Layer_1-2" data-name="Layer 1"><g class="cls-1"><path class="cls-2" d="M32,13.38a15,15,0,0,1-.63,4.43A8.49,8.49,0,0,1,29.47,21a11.28,11.28,0,0,1-1.34,1.2,13.38,13.38,0,0,1-2.21,1.35,18.08,18.08,0,0,1-2,.83,17.43,17.43,0,0,1-2.12.61,23.91,23.91,0,0,1-5.66.64A25.83,25.83,0,0,1,10.49,25,19.23,19.23,0,0,1,6.4,23.54,12.66,12.66,0,0,1,2.77,21C1.59,19.7.24,17.69.25,13.29c0,2.37,1.55,4.74,4.68,6.54,6.21,3.59,16.27,3.59,22.45,0C30.44,18.05,32,15.72,32,13.38Z"/><path class="cls-3" d="M27,23.15a17.47,17.47,0,0,1-4,1.67,22.66,22.66,0,0,1-4.5.83,25.45,25.45,0,0,1-3.52.08,21,21,0,0,1-2.32-.21,22,22,0,0,1-4.43-1,16.84,16.84,0,0,1-3.61-1.74A10.35,10.35,0,0,1,2,20.44,8.58,8.58,0,0,1,.49,17.33a15.63,15.63,0,0,1-.49-4c0-2.38,1.57-4.75,4.68-6.56,6.27-3.64,16.49-3.64,22.8,0,0,2-.33,3.8-.72,4-5.91-3.41-15.51-3.41-21.38,0s-5.85,9,.06,12.39,15.52,3.42,21.4,0,5.84-9-.08-12.39c.39-.23.71-2,.72-4,3.17,1.83,4.76,4.24,4.75,6.65a11.84,11.84,0,0,1-1.32,6,8.45,8.45,0,0,1-1.68,2.12A12.79,12.79,0,0,1,27,23.15Z"/><path class="cls-3" d="M2.23,13.83a5.61,5.61,0,0,0-1,2.7,10.31,10.31,0,0,0,3.67,3.3c6.21,3.59,16.27,3.59,22.45,0A10.51,10.51,0,0,0,31,16.62a5.73,5.73,0,0,0-1-2.71c0-.16,0-.33,0-.54,0,.16,0,.32,0,.48a10.1,10.1,0,0,0-3.37-3c-5.82-3.36-15.25-3.36-21,0a10,10,0,0,0-3.29,2.91c0-.16,0-.32,0-.48C2.25,13.5,2.24,13.68,2.23,13.83Zm3.49-3A15.56,15.56,0,0,1,8.47,9.61a22.11,22.11,0,0,1,4.22-1s1-.14,2.24-.19a20,20,0,0,1,2.26,0,25,25,0,0,1,3.33.37,18.61,18.61,0,0,1,5.91,2.07h0a11.29,11.29,0,0,1,2.46,1.89,6.46,6.46,0,0,1,1,1.43C29.6,16,28.28,17.66,26,19c-5.39,3.14-14.19,3.14-19.62,0-2.38-1.37-3.72-3.12-4-4.91a8.68,8.68,0,0,1,3.4-3.24"/><path class="cls-2" d="M29.58,20.86a7.76,7.76,0,0,0,1.1-1.52l.05-.09A9.57,9.57,0,0,1,29.58,20.86Zm-1.14,1.08c.19-.16.39-.33.58-.51l.28-.27C29.1,21.35,28.78,21.66,28.44,21.94Zm-6.62,3-.07,0q.55-.12,1.14-.3h0Zm-4.54.62-.81,0Zm1.13-.08h.05s.57,0,1.35-.15C19.39,25.41,18.93,25.47,18.41,25.51Zm-4.38,0c.35,0,.61,0,.92.06ZM10.49,25h0a18.06,18.06,0,0,0,2.23.41h.08C11.87,25.27,11.12,25.11,10.49,25Zm-2.22-.66.09,0c.34.12.72.24,1.12.36C9.09,24.6,8.68,24.47,8.27,24.32Zm-4-2.07,0,0Zm0,0,.56.38a13.93,13.93,0,0,0,1.59.9A16.07,16.07,0,0,1,4.25,22.26ZM2.77,21c-.15-.16-.31-.34-.46-.53a8.45,8.45,0,0,0,.79.87Zm21.54,3.26a14.85,14.85,0,0,0,2.47-1.15l-.86.46A16.08,16.08,0,0,1,24.31,24.22Zm3.82-2-.51.36.55-.39ZM5.56,10.86c5.78-3.36,15.21-3.36,21,0,2.76,1.6,4.22,3.67,4.37,5.76a5.89,5.89,0,0,0,1-3.24C32,11,30.43,8.64,27.3,6.83,21.09,3.25,11,3.25,4.86,6.83,1.79,8.61.26,11,.25,13.29a5.87,5.87,0,0,0,1,3.24C1.42,14.47,2.85,12.44,5.56,10.86ZM32,13.38a16.61,16.61,0,0,1-.24,2.84A16.19,16.19,0,0,0,32,13.38Z"/><path class="cls-3" d="M30,13.37a5.53,5.53,0,0,0,.11,1.24,6.22,6.22,0,0,0-1.74-2.38A12.94,12.94,0,0,0,24.65,10a19,19,0,0,0-4.13-1.2,24.31,24.31,0,0,0-4.46-.4A23.08,23.08,0,0,0,7.52,10c-3.6,1.51-4.85,3.42-5.22,4.17a2.46,2.46,0,0,0-.16.39,5.53,5.53,0,0,0,.11-1.24c0-2,1.35-4.08,4-5.64,5.39-3.13,14.19-3.13,19.61,0C28.62,9.23,30,11.3,30,13.37Z"/><path class="cls-3" d="M30,12.47v.9c0-2.07-1.36-4.14-4.09-5.72-5.42-3.13-14.22-3.13-19.61,0-2.68,1.56-4,3.6-4,5.64v-.9c0-2.05,1.35-4.09,4-5.65,5.39-3.13,14.19-3.13,19.61,0C28.63,8.32,30,10.4,30,12.47Z"/><path class="cls-3" d="M32.23,13.38a15.2,15.2,0,0,1-.63,4.46,8.58,8.58,0,0,1-1.91,3.21,11.71,11.71,0,0,1-1.36,1.22,13.85,13.85,0,0,1-2.25,1.37,15.06,15.06,0,0,1-2,.84,16.31,16.31,0,0,1-2.15.63,24.64,24.64,0,0,1-5.76.65,25.6,25.6,0,0,1-5.76-.65,19.82,19.82,0,0,1-4.16-1.45A13.28,13.28,0,0,1,2.55,21C1.36,19.76,0,17.72,0,13.29c0,2.4,1.58,4.81,4.75,6.64,6.31,3.65,16.54,3.65,22.81,0C30.67,18.13,32.23,15.76,32.23,13.38Z"/><path class="cls-2" d="M32,12.47v.91c0,2.34-1.54,4.67-4.6,6.45-6.18,3.59-16.24,3.59-22.45,0C1.8,18,.24,15.66.25,13.29v-.91c0,2.37,1.56,4.74,4.68,6.55,6.22,3.58,16.28,3.58,22.45,0C30.45,17.15,32,14.81,32,12.47Z"/><path class="cls-3" d="M32.24,12.47v.91c0,2.38-1.56,4.75-4.67,6.55-6.27,3.65-16.5,3.65-22.81,0C1.58,18.1,0,15.69,0,13.29v-.91C0,14.79,1.58,17.2,4.75,19c6.31,3.64,16.54,3.64,22.81,0C30.67,17.22,32.23,14.85,32.24,12.47Z"/><path class="cls-2" d="M26.76,2.71c.24.15.58.33.81.5A16,16,0,0,1,29,4.29a9,9,0,0,1,1.8,2.29A11.54,11.54,0,0,1,32,12.47c0,2.34-1.54,4.68-4.61,6.46-6.17,3.58-16.23,3.58-22.45,0C1.81,17.12.25,14.75.25,12.38c.06-3.84,1-5.63,1.91-6.88A10.28,10.28,0,0,1,4.6,3.23,16,16,0,0,1,8.3,1.4a22.5,22.5,0,0,1,4.34-1A25.22,25.22,0,0,1,18.38.25a22.9,22.9,0,0,1,4.44.81,18.09,18.09,0,0,1,3.94,1.65.14.14,0,0,0-.15,0c-5.82-3.36-15.25-3.36-21,0s-5.75,8.83.06,12.18,15.26,3.37,21,0,5.75-8.82-.07-12.18A.14.14,0,0,1,26.76,2.71Z"/><path class="cls-3" d="M5.8,14.89a17.3,17.3,0,0,0,2.77,1.26,22.64,22.64,0,0,0,3.14.82,25.16,25.16,0,0,0,3.34.37,20,20,0,0,0,2.26,0,18.92,18.92,0,0,0,2.23-.2,19.16,19.16,0,0,0,7-2.23A10.38,10.38,0,0,0,29,13a5.3,5.3,0,0,0,1.12-1.75A6,6,0,0,0,30,12.47c0-2.07-1.36-4.15-4.1-5.73-5.42-3.13-14.22-3.13-19.61,0-2.68,1.56-4,3.6-4,5.65a6,6,0,0,0-.1-1.24A7.87,7.87,0,0,0,5.8,14.89a.15.15,0,0,0-.16,0C-.17,11.54-.2,6.07,5.58,2.71s15.21-3.36,21,0,5.85,8.83.07,12.18-15.21,3.37-21,0A.15.15,0,0,1,5.8,14.89Z"/><path class="cls-2" d="M26.61,2.71c5.82,3.36,5.85,8.83.07,12.18s-15.21,3.37-21,0S-.2,6.07,5.58,2.71,20.79-.65,26.61,2.71Z"/><path class="cls-3" d="M26.79,2.61c5.91,3.41,6,9,.07,12.39S11.39,18.41,5.47,15-.48,6,5.4,2.61,20.87-.81,26.79,2.61ZM5.64,14.89c5.83,3.37,15.26,3.37,21,0s5.75-8.82-.07-12.18-15.25-3.36-21,0-5.75,8.83.06,12.18"/><path class="cls-3" d="M26.94,2.61c.25.15.58.33.82.5a13.64,13.64,0,0,1,1.4,1.11A8.81,8.81,0,0,1,31,6.53a11.69,11.69,0,0,1,1.25,5.94c0,2.38-1.57,4.75-4.68,6.56-6.27,3.64-16.5,3.64-22.81,0C1.58,17.2,0,14.79,0,12.38.06,8.5,1,6.7,1.93,5.44A10.42,10.42,0,0,1,4.41,3.13,16.85,16.85,0,0,1,8.17,1.27c5-1.82,13.08-1.94,18.77,1.34a.14.14,0,0,0-.15,0C20.87-.81,11.28-.81,5.4,2.61s-5.85,9,.07,12.39S21,18.41,26.86,15s5.84-9-.07-12.39A.14.14,0,0,1,26.94,2.61Z"/></g></g></g></svg>